<svg width="48" height="48" viewBox="0 0 48 48" fill="none" xmlns="http://www.w3.org/2000/svg">
    <g clip-path="url(#clip0_2752_281)">
        <path
            d="M6.32483 13.3696L0.633379 29.0316C-0.859694 33.1403 1.25541 37.6834 5.35759 39.1788C9.45978 40.6743 13.9956 38.5558 15.4887 34.4471L21.1802 18.7851C22.6732 14.6763 20.5581 10.1333 16.4559 8.63783C12.3538 7.14238 7.8179 9.26084 6.32483 13.3696Z"
            fill="#0066FF"
        />
        <path
            d="M23.271 22.6024C23.271 22.6024 27.4643 21.5754 29.1635 25.8603L29.4266 26.58L32.2856 34.4502C33.7795 38.5573 38.3141 40.6746 42.4153 39.1799C44.3852 38.462 45.9897 36.9895 46.8757 35.0866C47.7616 33.1837 47.8565 31.0062 47.1394 29.0332L41.448 13.3702C40.7317 11.3965 39.2619 9.78877 37.362 8.90067C35.4621 8.01257 33.2877 7.91689 31.3174 8.63469C29.0561 9.45619 27.2928 11.2663 26.5284 13.5506L23.271 22.6024Z"
            fill="#D1D5E4"
        />
        <path
            d="M32.2856 34.4473L29.4265 26.58L29.1654 25.8631C27.4662 21.5782 23.2729 22.6053 23.2729 22.6053L20.9351 29.0322C20.2177 31.0053 20.3124 33.1831 21.1984 35.0862C22.0844 36.9894 23.6891 38.4619 25.6592 39.1799C28.5867 40.248 31.8675 39.4941 34.0373 37.2546C33.2617 36.4534 32.6647 35.4966 32.2856 34.4473Z"
            fill="#D1D5E4"
        />
        <path
            d="M32.2856 34.4473L29.4265 26.58L29.1654 25.8631C27.4662 21.5782 23.2729 22.6053 23.2729 22.6053L20.9351 29.0322C20.2177 31.0053 20.3124 33.1831 21.1984 35.0862C22.0844 36.9894 23.6891 38.4619 25.6592 39.1799C28.5867 40.248 31.8675 39.4941 34.0373 37.2546C33.2617 36.4534 32.6647 35.4966 32.2856 34.4473Z"
            fill="url(#paint0_linear_2752_281)"
            fill-opacity="0.4"
        />
    </g>
    <defs>
        <linearGradient
            id="paint0_linear_2752_281"
            x1="35.8134"
            y1="17.0964"
            x2="21.3762"
            y2="39.6836"
            gradientUnits="userSpaceOnUse"
        >
            <stop />
            <stop offset="1" stop-opacity="0" />
        </linearGradient>
        <clipPath id="clip0_2752_281">
            <rect width="48" height="31.8261" fill="white" transform="translate(0 8)" />
        </clipPath>
    </defs>
</svg>