<svg width="189" height="48" viewBox="0 0 189 48" fill="none" xmlns="http://www.w3.org/2000/svg">
<path d="M163.594 5.67394C168.065 1.78287 172.491 0.155071 175.197 1.71627C178.019 3.34408 178.846 8.28903 177.582 14.4273C177.503 14.8086 177.417 15.1885 177.324 15.5666C177.885 15.728 178.441 15.9035 178.994 16.093C184.597 18.0223 188.217 21.0446 188.217 24.1695C188.217 27.4286 184.348 30.6151 178.401 32.586C178.086 32.6902 177.764 32.7904 177.436 32.8873C177.553 33.3585 177.657 33.8213 177.747 34.2744C178.921 40.2067 178.017 45.0825 175.234 46.6937C172.54 48.2538 168.186 46.7213 163.777 42.9262C163.297 42.5127 162.83 42.0859 162.374 41.6464C162.013 41.9961 161.652 42.3298 161.292 42.6445C156.74 46.6244 152.066 48.2756 149.28 46.6692C146.584 45.1133 145.736 40.5746 146.822 34.8584C146.94 34.2372 147.076 33.6194 147.229 33.0058C146.758 32.8713 146.29 32.725 145.826 32.5671C140.105 30.6114 136.34 27.3856 136.34 24.1695C136.34 21.0559 139.848 18.0538 145.34 16.1385C145.954 15.9244 146.596 15.7232 147.26 15.5345C147.118 14.9649 146.99 14.3918 146.877 13.8157C145.739 7.99852 146.539 3.34959 149.243 1.78402C152.063 0.151397 156.758 1.90459 161.443 6.0655C161.735 6.32489 162.021 6.58965 162.303 6.85965C162.723 6.4536 163.154 6.05823 163.594 5.67394ZM175.269 33.4256C173.121 33.9222 170.752 34.286 168.244 34.5085C166.818 36.5723 165.358 38.4309 163.896 40.0297C164.333 40.4498 164.768 40.847 165.201 41.2189C168.97 44.4632 172.466 45.6932 174.101 44.7469C174.869 44.3022 175.49 43.192 175.799 41.5267C176.143 39.6734 176.069 37.3026 175.55 34.6804C175.469 34.2711 175.375 33.8526 175.269 33.4256ZM149.359 33.5248C149.216 34.0952 149.09 34.6695 148.98 35.247C148.052 40.1334 148.732 43.7768 150.368 44.7203C151.137 45.1636 152.409 45.1475 154.006 44.5835C155.784 43.9556 157.8 42.7076 159.813 40.9482C160.15 40.653 160.479 40.3496 160.801 40.0382C159.286 38.4126 157.783 36.5563 156.349 34.5367C153.835 34.3329 151.483 33.9947 149.359 33.5248ZM165.389 34.6976C164.36 34.7436 163.315 34.7672 162.257 34.7672C161.228 34.7672 160.216 34.7475 159.223 34.7084C160.246 36.0567 161.293 37.3102 162.344 38.4436C163.359 37.3258 164.379 36.0705 165.389 34.6976ZM162.258 15.8388C160.659 15.8388 159.077 15.8998 157.535 16.0165C156.646 17.3189 155.807 18.6546 155.02 20.0207L154.553 20.8431C153.94 21.945 153.36 23.0652 152.813 24.2021C153.498 25.6228 154.236 27.017 155.026 28.3817C155.82 29.7536 156.666 31.0951 157.561 32.4031C159.073 32.5011 160.643 32.5514 162.257 32.5514C163.878 32.5514 165.468 32.4947 167.007 32.3847C167.88 31.0736 168.71 29.7345 169.496 28.3695C170.289 26.9968 171.032 25.5963 171.725 24.1706C171.025 22.7594 170.279 21.3712 169.489 20.0085C168.703 18.6493 167.869 17.3182 166.99 16.0178C165.447 15.9003 163.864 15.8388 162.258 15.8388ZM151.638 26.8077C150.979 28.3711 150.415 29.9083 149.957 31.3872C151.436 31.7093 153.038 31.9662 154.737 32.1558C154.173 31.2809 153.63 30.3927 153.109 29.4919C152.597 28.6088 152.107 27.7138 151.638 26.8077ZM172.92 26.7281C172.439 27.6552 171.937 28.5716 171.415 29.4765C170.902 30.3668 170.371 31.2469 169.823 32.1161C171.534 31.9109 173.157 31.6345 174.661 31.2913C174.197 29.8374 173.613 28.3084 172.92 26.7281ZM147.836 17.6515C147.236 17.8213 146.64 18.0086 146.051 18.2132C141.355 19.8508 138.539 22.2601 138.539 24.1488C138.539 25.0366 139.188 26.1305 140.475 27.2324C141.906 28.4583 143.995 29.5819 146.524 30.4464C146.948 30.5905 147.375 30.7242 147.805 30.8473C148.46 28.7111 149.324 26.4684 150.364 24.2028C149.337 21.9704 148.485 19.7628 147.836 17.6515ZM176.707 17.6841C176.069 19.7491 175.217 21.9307 174.182 24.1598C175.266 26.4429 176.152 28.653 176.809 30.7313C177.105 30.6434 177.397 30.5527 177.68 30.4588C182.814 28.7575 185.976 26.1541 185.976 24.1488C185.976 22.2663 183.049 19.823 178.249 18.1708C177.752 17.9997 177.237 17.8379 176.707 17.6841ZM169.829 16.3041C170.373 17.1574 170.899 18.0223 171.406 18.8983C171.922 19.788 172.419 20.688 172.898 21.5976C173.555 20.0617 174.112 18.5636 174.559 17.1308C173.07 16.7908 171.484 16.513 169.829 16.3041ZM154.69 16.3C153.046 16.5054 151.467 16.7761 149.987 17.1074C150.438 18.5606 150.99 20.0654 151.636 21.596C152.103 20.6905 152.591 19.7961 153.1 18.9134C153.609 18.03 154.139 17.1586 154.69 16.3ZM174.067 3.62347C172.436 2.68292 168.857 3.99882 165.028 7.33175C164.621 7.68653 164.223 8.05135 163.835 8.42589C165.317 10.0233 166.794 11.8688 168.219 13.8984C170.666 14.128 173.003 14.4976 175.155 14.9942C175.239 14.6519 175.316 14.3081 175.388 13.9629C176.479 8.6651 175.804 4.62533 174.067 3.62347ZM159.951 7.70848C155.906 4.11728 152.069 2.68475 150.334 3.68936C148.705 4.63244 148.058 8.39076 149.032 13.3732C149.138 13.9086 149.257 14.4415 149.389 14.9712C151.536 14.4848 153.871 14.1216 156.31 13.8954C157.733 11.8876 159.222 10.0453 160.729 8.42704C160.469 8.17841 160.209 7.93805 159.951 7.70848ZM162.282 10.0106C161.244 11.1307 160.212 12.3653 159.204 13.6943C161.247 13.5987 163.292 13.5992 165.335 13.6957C164.328 12.3543 163.304 11.1179 162.282 10.0106Z" fill="#0066FF"/>
<path d="M162.279 19.5203C164.836 19.5203 166.908 21.5931 166.908 24.1498C166.908 26.7068 164.836 28.7796 162.279 28.7796C159.722 28.7796 157.649 26.7068 157.649 24.1498C157.649 21.5931 159.722 19.5203 162.279 19.5203Z" fill="#031A34"/>
<path d="M100.587 37L87.9671 23.9049C85.2563 21.0923 85.3601 16.6349 88.1988 13.949C91.0376 11.2632 95.5364 11.366 98.2472 14.1786L101.047 17.0849L103.98 14.3107C106.82 11.6239 111.32 11.7267 114.032 14.5402C116.744 17.3538 116.64 21.8126 113.8 24.4994L100.587 37Z" fill="#031A34"/>
<g clip-path="url(#clip0)">
<path d="M9.92295 9.33945L2.07104 30.9468C0.0112002 36.6151 2.92919 42.8827 8.58856 44.9459C14.2479 47.009 20.5056 44.0863 22.5654 38.418L30.4173 16.8107C32.4772 11.1423 29.5592 4.87468 23.8998 2.81156C18.2404 0.748442 11.9828 3.67108 9.92295 9.33945Z" fill="#0066FF"/>
<path d="M33.3017 22.0772C33.3017 22.0772 39.0867 20.6602 41.431 26.5717L41.7939 27.5646L45.7382 38.4223C47.7992 44.0885 54.0551 47.0095 59.7131 44.9474C62.4308 43.9569 64.6444 41.9256 65.8667 39.3003C67.0889 36.675 67.2198 33.6709 66.2305 30.949L58.3786 9.34035C57.3904 6.61752 55.3627 4.39947 52.7416 3.17425C50.1205 1.94903 47.1207 1.81704 44.4024 2.80731C41.2829 3.94065 38.8502 6.43782 37.7956 9.58924L33.3017 22.0772Z" fill="#D1D5E4"/>
<path d="M45.7382 38.4184L41.7939 27.5647L41.4336 26.5757C39.0893 20.6643 33.3043 22.0812 33.3043 22.0812L30.0791 30.9478C29.0894 33.6699 29.2201 36.6743 30.4424 39.2999C31.6647 41.9254 33.8784 43.957 36.5965 44.9475C40.6352 46.4211 45.1614 45.3809 48.1548 42.2913C47.0849 41.186 46.2612 39.866 45.7382 38.4184Z" fill="#D1D5E4"/>
<path d="M45.7382 38.4184L41.7939 27.5647L41.4336 26.5757C39.0893 20.6643 33.3043 22.0812 33.3043 22.0812L30.0791 30.9478C29.0894 33.6699 29.2201 36.6743 30.4424 39.2999C31.6647 41.9254 33.8784 43.957 36.5965 44.9475C40.6352 46.4211 45.1614 45.3809 48.1548 42.2913C47.0849 41.186 46.2612 39.866 45.7382 38.4184Z" fill="url(#paint0_linear)" fill-opacity="0.4"/>
</g>
<defs>
<linearGradient id="paint0_linear" x1="50.6052" y1="14.4811" x2="30.6876" y2="45.6425" gradientUnits="userSpaceOnUse">
<stop/>
<stop offset="1" stop-opacity="0"/>
</linearGradient>
<clipPath id="clip0">
<rect width="68" height="68" fill="white" transform="translate(0 -10)"/>
</clipPath>
</defs>
</svg>
