<?xml version="1.0" encoding="UTF-8"?>
<svg width="189px" height="48px" viewBox="0 0 189 48" version="1.1" xmlns="http://www.w3.org/2000/svg" xmlns:xlink="http://www.w3.org/1999/xlink">
    <title>Rectangle</title>
    <defs>
        <linearGradient x1="24.6563582%" y1="107.937442%" x2="89.6927755%" y2="-23.6394111%" id="linearGradient-1">
            <stop stop-color="#003245" stop-opacity="0" offset="0%"></stop>
            <stop stop-color="#003245" offset="100%"></stop>
        </linearGradient>
    </defs>
    <g id="Page-1" stroke="none" stroke-width="1" fill="none" fill-rule="evenodd">
        <g id="mistica-react-logo" transform="translate(-3.000000, -1.000000)" fill-rule="nonzero">
            <g id="Group">
                <g id="favicon_32">
                    <rect id="Rectangle" fill="#003245" transform="translate(18.390247, 25.190803) rotate(-70.000000) translate(-18.390247, -25.190803) " x="-3.8937532" y="14.3308034" width="44.568" height="21.72" rx="10.848"></rect>
                    <path d="M35.352,23.4 C38.7783661,22.6674017 42.2172232,24.5870025 43.392,27.888 L43.752,28.848 L47.736,39.6 C48.7160224,42.3053721 50.7307271,44.5105539 53.336805,45.7303244 C55.9428829,46.9500949 58.9268055,47.0845123 61.632,46.104 L61.632,46.104 C67.2688502,44.0527612 70.1793121,37.8237285 68.136,32.184 L60.312,10.8 C58.2607612,5.16314976 52.0317285,2.25268794 46.392,4.296 L46.392,4.296 C43.2913607,5.43145234 40.8728893,7.91170957 39.816,11.04 L35.352,23.4 Z" id="Path" fill="#00EDFF"></path>
                    <path d="M47.736,39.6 L43.8,28.8 L43.44,27.84 C42.2629751,24.5172215 38.7942876,22.5924602 35.352,23.352 L32.136,32.184 C30.1045344,37.8162933 32.998298,44.0325261 38.616,46.104 L38.616,46.104 C42.6415493,47.5575963 47.1451644,46.5255179 50.136,43.464 C49.0719193,42.3600825 48.2539398,41.0431355 47.736,39.6 L47.736,39.6 Z" id="Path" fill="#00EDFF"></path>
                    <path d="M47.736,39.6 L43.8,28.8 L43.44,27.84 C42.2629751,24.5172215 38.7942876,22.5924602 35.352,23.352 L32.136,32.184 C30.1045344,37.8162933 32.998298,44.0325261 38.616,46.104 L38.616,46.104 C42.6415493,47.5575963 47.1451644,46.5255179 50.136,43.464 C49.0719193,42.3600825 48.2539398,41.0431355 47.736,39.6 L47.736,39.6 Z" id="Path" fill="url(#linearGradient-1)"></path>
                </g>
                <g id="react" transform="translate(139.000000, 2.000000)" fill="#61DAFB">
                    <path d="M27.5944077,4.67393781 C32.0645118,0.782872862 36.4905347,-0.844930264 39.1967039,0.716272564 C42.019275,2.34407569 42.8457966,7.28903293 41.5816778,13.4272838 C41.502689,13.8086178 41.4166548,14.1884576 41.3236194,14.5666082 C41.8846283,14.7280071 42.4414826,14.9035201 42.9936521,15.0929802 C48.5965498,17.0223219 52.2171734,20.0445974 52.2171734,23.1695293 C52.2171734,26.4285804 48.3479046,29.6150601 42.4006229,31.5859696 C42.0863151,31.6902335 41.7642013,31.7903636 41.4358886,31.8872786 C41.5529791,32.3585331 41.6574423,32.8212903 41.7469821,33.274402 C42.9211019,39.2066512 42.0169791,44.0824819 39.2343566,45.6937498 C36.5401259,47.2538044 32.1857349,45.7213086 27.7767017,41.9262399 C27.2974599,41.512732 26.8298344,41.0859415 26.3743701,40.6463659 C26.0127669,40.9961323 25.6516229,41.3298228 25.2918565,41.6444518 C20.7400186,45.6243937 16.0655801,47.2756217 13.2804321,45.6691766 C10.5839056,44.1132559 9.73649139,39.5745604 10.8215305,33.8584177 C10.9400914,33.2371954 11.0759848,32.6194088 11.2290515,32.0057812 C10.757884,31.8712474 10.2901419,31.7249875 9.82626081,31.5671378 C4.10535417,29.6113856 0.340089354,26.3856347 0.340089354,23.1695293 C0.340089354,20.0558506 3.84775496,17.0537848 9.33999063,15.1384521 C9.95391247,14.9244125 10.5956146,14.7232337 11.2600461,14.5344563 C11.1177084,13.9648816 10.9898624,13.391781 10.8766319,12.8157093 C9.73855769,6.99851784 10.5393652,2.34958744 13.243009,0.784021143 C16.0625955,-0.848604763 20.7583858,0.904590646 25.4431558,5.06550163 C25.7345611,5.32488654 26.0211378,5.589649 26.3027382,5.85965276 C26.7232428,5.45359589 27.1539368,5.05823142 27.5944077,4.67393781 Z M39.2690526,32.4255868 C37.1206598,32.9221509 34.751666,33.2860225 32.2440217,33.5084777 C30.8184934,35.5723296 29.3578434,37.4309442 27.8962752,39.0296834 C28.3328863,39.4498001 28.7683496,39.8469596 29.2005991,40.2188661 C32.9703295,43.4631771 36.4662023,44.6932237 38.100854,43.746928 C38.8689406,43.3022471 39.4901128,42.1920371 39.799092,40.5267221 C40.1429634,38.6733877 40.0688176,36.302598 39.5497967,33.6804271 C39.4687643,33.2711003 39.3746473,32.8525906 39.2690526,32.4255868 Z M13.3586414,32.5247618 C13.2164906,33.0952325 13.0901875,33.6695363 12.9798778,34.2470107 C12.0522514,39.1334499 12.7321894,42.7767569 14.3684479,43.7202977 C15.1372232,44.1636011 16.4091801,44.1475311 18.0061849,43.5834728 C19.783619,42.9555935 21.800248,41.7076403 23.812745,39.9482008 C24.1495724,39.6530165 24.4790817,39.3495835 24.8009735,39.0381775 C23.2863784,37.4125785 21.7834906,35.5562596 20.3485506,33.536715 C17.8349379,33.3328551 15.4831606,32.9946956 13.3586414,32.5247618 Z M29.3886036,33.697645 C28.3599736,33.7435594 27.3148158,33.7672053 26.2574916,33.7672053 C25.2284025,33.7672053 24.2158412,33.7474621 23.2227921,33.7084349 C24.2459128,35.056711 25.2933661,36.3101739 26.3435742,37.4435707 C27.3586605,36.3257848 28.3785675,35.0704853 29.3886036,33.697645 Z M26.2577211,14.8387675 C24.6588798,14.8387675 23.077255,14.8998336 21.5346544,15.0164562 C20.6459361,16.3188629 19.8070014,17.654557 19.0196644,19.0206503 L19.0196644,19.0206503 L18.5533244,19.8431464 C17.9398352,20.94502 17.359602,22.0651675 16.8134241,23.2020741 C17.4978874,24.6227817 18.2360518,26.016982 19.0263214,27.3816612 C19.8203023,28.7536194 20.6658939,30.0950492 21.5612826,31.4030732 C23.0733526,31.5011005 24.6434997,31.5513767 26.2574916,31.5513767 C27.8781405,31.5513767 29.4684883,31.4946725 31.0074161,31.3847075 C31.8801691,30.0736308 32.7100615,28.7345187 33.4957778,27.3694939 C34.2885268,25.9967745 35.0319102,24.5962631 35.724744,23.1706227 C35.0247092,21.7593608 34.2789541,20.3712468 33.4886617,19.008483 C32.7028089,17.6492809 31.8692399,16.3182362 30.9895109,15.0178336 C29.4473693,14.9002928 27.8636786,14.8387675 26.2577211,14.8387675 Z M15.6381093,25.8077158 C14.9790607,27.3711009 14.4148178,28.9083147 13.9568582,30.3872173 C15.4363316,30.7093068 17.0383867,30.9661978 18.7370838,31.1558242 C18.1731738,30.2809087 17.6302016,29.392672 17.1086301,28.4918712 C16.597485,27.6088047 16.1071759,26.7138388 15.6381093,25.8077158 Z M36.9195708,25.7280543 C36.4386008,26.6552474 35.9370548,27.5716195 35.4153056,28.4764899 C34.9020563,29.3668363 34.3711466,30.2468832 33.8228918,31.1161083 C35.5337553,30.910871 37.1573884,30.6344663 38.661424,30.2912562 C38.1972665,28.837377 37.6128229,27.3084277 36.9195708,25.7280543 Z M11.8362414,16.6514677 C11.2358079,16.8212594 10.6404732,17.0085938 10.0510025,17.2132303 C5.35456404,18.8507671 2.53862918,21.2601248 2.53862918,23.1488134 C2.53862918,24.0365681 3.18826606,25.1304785 4.47468482,26.2324239 C5.90641106,27.4583382 7.99511989,28.5818634 10.5243422,29.4464314 C10.9478105,29.5905145 11.3747562,29.7241658 11.8047926,29.8472641 C12.4599387,27.711097 13.3235196,25.4684085 14.364316,23.2027628 C13.3368338,20.970405 12.4854192,18.762841 11.8362414,16.6514677 Z M40.7067472,16.6840669 C40.068588,18.7490667 39.2169439,20.9306891 38.1823455,23.1598328 C39.266298,25.442926 40.1523751,27.6530152 40.8088986,29.7313302 C41.105482,29.6434042 41.396556,29.5527232 41.6800548,29.4588283 L41.6800548,29.4588283 C46.8142521,27.7574705 49.9763539,25.1541244 49.9763539,23.1488134 C49.9763539,21.2663233 47.0486264,18.8229889 42.2486592,17.1707595 C41.7523642,16.9997284 41.2372458,16.8378801 40.7067472,16.6840669 Z M33.8290898,15.3041099 C34.3734103,16.1574034 34.8992867,17.0223252 35.406353,17.898273 C35.9216364,18.7880193 36.4191018,19.6879678 36.8984519,20.5975802 C37.5545163,19.0617437 38.111643,17.5635571 38.558584,16.1307985 C37.0696989,15.7908024 35.4841717,15.5130203 33.8290898,15.3041099 Z M18.6897958,15.2999776 C17.0455028,15.5054445 15.4673214,15.7761098 13.9873889,16.1073822 C14.4382323,17.5605727 14.9903088,19.0654169 15.6355842,20.5959731 C16.1026816,19.6905213 16.5908456,18.796095 17.0996775,17.9134248 C17.6091895,17.0299486 18.139375,16.1585594 18.6897958,15.2999776 Z M38.06688,2.623473 C36.4361308,1.68291667 32.8571595,2.99882315 29.0277452,6.33174889 C28.6211593,6.68652732 28.2234496,7.05135321 27.8349844,7.42588886 C29.317442,9.02325057 30.7941607,10.8687796 32.2194594,12.8984253 C34.6660424,13.1279972 37.0028988,13.4976081 39.1547349,13.9941723 C39.2386778,13.6518586 39.3164326,13.3080568 39.3879614,12.962935 C40.4792595,7.66510284 39.8036831,3.62532504 38.06688,2.623473 Z M23.9507067,6.70847648 C19.9064302,3.11728229 16.0694406,1.68475325 14.3340149,2.68936015 C12.7048725,3.63244177 12.0575312,7.39076435 13.0324456,12.3731646 C13.1378319,12.9086058 13.2567019,13.4415351 13.3889424,13.9712151 C15.5357284,13.4847521 17.8709778,13.1215692 20.3104447,12.8954408 C21.7329887,10.8876045 23.2221034,9.04528948 24.7288937,7.42703672 C24.4688094,7.17841029 24.2091842,6.93804844 23.9507067,6.70847648 Z M26.2822834,9.01062411 C25.2442417,10.1307057 24.2119388,11.3653437 23.2041982,12.6943358 C25.2465779,12.598737 27.292322,12.5991966 29.3346585,12.6957132 C28.3278361,11.3543243 27.3042563,10.1178497 26.2822834,9.01062411 Z" id="Combined-Shape"></path>
                    <path d="M26.2786314,18.5203225 C28.8356249,18.5203225 30.9082489,20.5931247 30.9082489,23.1498253 C30.9082489,25.7067555 28.8356249,27.7795576 26.2786314,27.7795576 C23.7218673,27.7795576 21.6490138,25.7067555 21.6490138,23.1498253 C21.6490138,20.5931247 23.7218673,18.5203225 26.2786314,18.5203225" id="Path"></path>
                </g>
                <path d="M103.587155,38 L90.967146,24.9049313 C88.2563464,22.0923051 88.3600672,17.6349035 91.1988128,14.9490462 C94.0375584,12.2631888 98.5363537,12.3659553 101.247153,15.1785814 L104.047155,18.0849271 L106.980491,15.3106881 C109.820157,12.6239188 114.320444,12.7266852 117.032164,15.5402234 C119.743884,18.3537615 119.640164,22.8126417 116.800498,25.4994111 L103.587155,38 Z" id="Path" fill="#003245"></path>
            </g>
        </g>
    </g>
</svg>