<?xml version="1.0" encoding="utf-8"?>
<!-- Generator: Adobe Illustrator 24.1.3, SVG Export Plug-In . SVG Version: 6.00 Build 0)  -->
<svg version="1.1" id="Capa_1" xmlns="http://www.w3.org/2000/svg" xmlns:xlink="http://www.w3.org/1999/xlink" x="0px" y="0px"
	 viewBox="0 0 388 100" style="enable-background:new 0 0 388 100;" xml:space="preserve">
<style type="text/css">
	.st0{fill:#003245;}
	.st1{fill:#00EDFF;}
	.st2{fill:url(#SVGID_1_);}
	.st3{fill:#FFFFFF;}
	.st4{fill:url(#SVGID_2_);}
	.st5{fill:url(#SVGID_3_);}
	.st6{fill:#192C3D;}
	.st7{fill:#00EDED;}
	.st8{fill:url(#SVGID_4_);}
	.st9{fill:url(#SVGID_5_);}
	.st10{fill:#FF00CC;}
	.st11{fill:url(#SVGID_6_);}
	.st12{fill:url(#SVGID_7_);}
	.st13{fill:#980098;}
	.st14{fill:url(#SVGID_8_);}
	.st15{fill:#FF7B00;}
	.st16{fill:url(#SVGID_9_);}
	.st17{fill:#FFFF00;}
	.st18{fill:url(#SVGID_10_);}
	.st19{fill:#00FF99;}
	.st20{fill:url(#SVGID_11_);}
	.st21{fill:url(#SVGID_12_);}
	.st22{fill:url(#SVGID_13_);}
	.st23{fill:url(#SVGID_14_);}
	.st24{fill:none;stroke:#003245;stroke-width:24;stroke-miterlimit:10;}
	.st25{fill:url(#SVGID_15_);}
	.st26{fill:none;stroke:#C4C4C4;stroke-width:4;stroke-miterlimit:10;}
	.st27{fill:none;stroke:#FF2424;stroke-width:20;stroke-miterlimit:10;}
	.st28{fill:none;stroke:#33CC00;stroke-width:20;stroke-miterlimit:10;}
	.st29{fill:url(#SVGID_16_);}
	.st30{fill:url(#SVGID_17_);}
	.st31{fill:url(#SVGID_18_);}
	.st32{fill:url(#SVGID_19_);}
	.st33{fill:url(#SVGID_20_);}
</style>
<g>
	<g>
		<path class="st0" d="M51.43,38.62L38.32,74.64c-3.44,9.45-13.89,14.32-23.34,10.88l0,0C5.54,82.08,0.66,71.63,4.1,62.18
			l13.11-36.02c3.44-9.45,13.89-14.32,23.34-10.88l0,0C50,18.72,54.87,29.17,51.43,38.62z"/>
		<path class="st1" d="M56.25,47.4c0,0,9.66-2.36,13.57,7.49l0.6,1.65l6.59,18.1c3.44,9.45,13.89,14.32,23.34,10.88h0
			c9.45-3.44,14.32-13.89,10.88-23.34L98.11,26.17c-3.44-9.45-13.89-14.32-23.34-10.88l0,0c-5.41,1.97-9.32,6.24-11.03,11.31
			L56.25,47.4z"/>
		<g>
			<path class="st1" d="M77.01,74.64l-6.59-18.1l-0.6-1.65c-3.91-9.85-13.57-7.49-13.57-7.49l-5.38,14.79
				c-3.44,9.45,1.43,19.9,10.88,23.34h0c6.96,2.53,14.45,0.56,19.3-4.43C79.31,79.3,77.91,77.13,77.01,74.64z"/>
		</g>
		<g>
			<linearGradient id="SVGID_1_" gradientUnits="userSpaceOnUse" x1="52.753" y1="89.6724" x2="85.2473" y2="37.6815">
				<stop  offset="0" style="stop-color:#003245;stop-opacity:0"/>
				<stop  offset="1" style="stop-color:#003245"/>
			</linearGradient>
			<path class="st2" d="M77.01,74.64l-6.59-18.1l-0.6-1.65c-3.91-9.85-13.57-7.49-13.57-7.49l-5.38,14.79
				c-3.44,9.45,1.43,19.9,10.88,23.34h0c6.96,2.53,14.45,0.56,19.3-4.43C79.31,79.3,77.91,77.13,77.01,74.64z"/>
		</g>
	</g>
	<g>
		<path class="st0" d="M157.39,68.36V53.64c0-3.62-1.9-6.91-5.63-6.91c-3.68,0-5.85,3.29-5.85,6.91v14.72h-6.8V40.81h6.3l0.5,3.35
			c1.45-2.79,4.63-3.79,7.25-3.79c3.29,0,6.58,1.34,8.14,5.13c2.45-3.9,5.63-5.02,9.2-5.02c7.81,0,11.65,4.8,11.65,13.05v14.83h-6.8
			V53.53c0-3.62-1.51-6.69-5.19-6.69s-5.97,3.18-5.97,6.8v14.72H157.39z"/>
		<path class="st0" d="M188.09,68.36V41.82h7.14v26.54H188.09z M197.9,29.44h-7.3l-2.34,7.92v0.33h5.52l4.13-7.97V29.44z"/>
		<path class="st0" d="M218.48,48.17c-1.95-1.84-4.18-2.45-6.8-2.45c-3.23,0-5.02,1-5.02,2.73c0,1.78,1.62,2.79,5.13,3.01
			c5.19,0.33,11.76,1.51,11.76,8.81c0,4.85-3.96,9.03-11.82,9.03c-4.35,0-8.7-0.73-12.71-4.91l3.35-4.85
			c1.95,2.17,6.41,3.79,9.48,3.85c2.56,0.06,4.96-1.28,4.96-3.29c0-1.9-1.56-2.68-5.46-2.9c-5.19-0.39-11.37-2.29-11.37-8.53
			c0-6.36,6.58-8.59,11.6-8.59c4.29,0,7.53,0.84,10.71,3.62L218.48,48.17z"/>
		<path class="st0" d="M236.98,33.12v7.81h7.58v5.85h-7.64v11.88c0,2.62,1.45,3.9,3.57,3.9c1.06,0,2.29-0.33,3.29-0.84l1.9,5.8
			c-1.95,0.78-3.57,1.11-5.63,1.17c-5.97,0.22-9.87-3.18-9.87-10.04V46.78h-5.13v-5.85h5.13v-7.08L236.98,33.12z"/>
		<path class="st0" d="M284.7,64.84c-3.18,3.12-6.52,4.35-10.59,4.35c-7.97,0-14.61-4.8-14.61-14.55s6.64-14.55,14.61-14.55
			c3.9,0,6.91,1.12,9.92,4.07l-4.29,4.52c-1.62-1.45-3.62-2.17-5.52-2.17c-4.57,0-7.92,3.35-7.92,8.14c0,5.24,3.57,8.03,7.81,8.03
			c2.17,0,4.35-0.61,6.02-2.29L284.7,64.84z"/>
		<path class="st0" d="M308.48,40.87H315v27.49h-6.41l-0.33-4.01c-1.56,3.23-5.85,4.8-8.92,4.85c-8.14,0.06-14.16-4.96-14.16-14.61
			c0-9.48,6.3-14.44,14.33-14.39c3.68,0,7.19,1.73,8.75,4.46L308.48,40.87z M291.97,54.58c0,5.24,3.62,8.36,8.14,8.36
			c10.71,0,10.71-16.67,0-16.67C295.6,46.28,291.97,49.34,291.97,54.58z"/>
		<g>
			<path class="st0" d="M248.73,40.76v27.6h6.8v-27.6H248.73z"/>
			<path class="st0" d="M256.19,33.1c0,5.51-8.35,5.51-8.35,0C247.85,27.6,256.19,27.6,256.19,33.1z"/>
		</g>
	</g>
</g>
</svg>
