<?xml version="1.0" encoding="UTF-8"?>
<svg width="211px" height="72px" viewBox="0 0 211 72" version="1.1" xmlns="http://www.w3.org/2000/svg" xmlns:xlink="http://www.w3.org/1999/xlink">
    <title>MisticaLogo - Imagotype</title>
    <g id="MisticaLogo---Imagotype" stroke="none" stroke-width="1" fill="none" fill-rule="evenodd">
        <rect fill="#FFFFFF" x="0" y="0" width="211" height="72"></rect>
        <g id="Group-2" transform="translate(15.157895, 12.744361)">
            <g id="Group" transform="translate(0.000000, 2.413534)" fill="#000000">
                <g id="Group-3">
                    <polygon id="Fill-1" points="49.1800679 -9.38345865e-05 36.602418 0.0449467669 23.8966995 15.6533919 11.2503751 0.0449467669 -0.000185606874 0.0449467669 -0.000185606874 41.6465107 12.0521968 41.6465107 12.0521968 17.5441588 23.2730604 31.5011152 24.2521366 31.5011152 35.4442311 17.5441588"></polygon>
                    <polygon id="Fill-2" points="36.8119682 18.1205847 36.8119682 40.4457095 33.3596803 40.4457095 33.3596803 41.6130117 36.8119682 41.6130117 36.8119682 41.6458538 48.8643506 41.6458538 48.8643506 41.6130117 51.9027351 41.6130117 51.9027351 40.4457095 48.8643506 40.4457095 48.8643506 2.99632602"></polygon>
                </g>
            </g>
            <g id="react" transform="translate(126.969925, 0.000000)" fill-rule="nonzero">
                <path d="M42.9936521,15.0929802 C42.4414826,14.9035201 41.8846283,14.7280071 41.3236194,14.5666082 C41.4166548,14.1884576 41.502689,13.8086178 41.5816778,13.4272838 C42.8457966,7.28903293 42.019275,2.34407569 39.1967039,0.716272564 C36.4905347,-0.844930264 32.0645118,0.782872862 27.5944077,4.67393781 C27.1539368,5.05823142 26.7232428,5.45359589 26.3027382,5.85965276 C26.0211378,5.589649 25.7345611,5.32488654 25.4431558,5.06550163 C20.7583858,0.904590646 16.0625955,-0.848604763 13.243009,0.784021143 C10.5393652,2.34958744 9.73855769,6.99851784 10.8766319,12.8157093 C10.9898624,13.391781 11.1177084,13.9648816 11.2600461,14.5344563 C10.5956146,14.7232337 9.95391247,14.9244125 9.33999063,15.1384521 C3.84775496,17.0537848 0.340089354,20.0558506 0.340089354,23.1695293 C0.340089354,26.3856347 4.10535417,29.6113856 9.82626081,31.5671378 C10.2901419,31.7249875 10.757884,31.8712474 11.2290515,32.0057812 C11.0759848,32.6194088 10.9400914,33.2371954 10.8215305,33.8584177 C9.73649139,39.5745604 10.5839056,44.1132559 13.2804321,45.6691766 C16.0655801,47.2756217 20.7400186,45.6243937 25.2918565,41.6444518 C25.6516229,41.3298228 26.0127669,40.9961323 26.3743701,40.6463659 C26.8298344,41.0859415 27.2974599,41.512732 27.7767017,41.9262399 C32.1857349,45.7213086 36.5401259,47.2538044 39.2343566,45.6937498 C42.0169791,44.0824819 42.9211019,39.2066512 41.7469821,33.274402 C41.6574423,32.8212903 41.5529791,32.3585331 41.4358886,31.8872786 C41.7642013,31.7903636 42.0863151,31.6902335 42.4006229,31.5859696 C48.3479046,29.6150601 52.2171734,26.4285804 52.2171734,23.1695293 C52.2171734,20.0445974 48.5965498,17.0223219 42.9936521,15.0929802 Z" id="Path" fill="#000000"></path>
                <path d="M41.6800548,29.4588283 C41.396556,29.5527232 41.105482,29.6434042 40.8088986,29.7313302 C40.1523751,27.6530152 39.266298,25.442926 38.1823455,23.1598328 C39.2169439,20.9306891 40.068588,18.7490667 40.7067472,16.6840669 C41.2372458,16.8378801 41.7523642,16.9997284 42.2486592,17.1707595 C47.0486264,18.8229889 49.9763539,21.2663233 49.9763539,23.1488134 C49.9763539,25.1541244 46.8142521,27.7574705 41.6802843,29.4588283 L41.6800548,29.4588283 Z M39.5497967,33.6804271 C40.0688176,36.302598 40.1429634,38.6733877 39.799092,40.5267221 C39.4901128,42.1920371 38.8689406,43.3022471 38.100854,43.746928 C36.4662023,44.6932237 32.9703295,43.4631771 29.2005991,40.2188661 C28.7683496,39.8469596 28.3328863,39.4498001 27.8962752,39.0296834 C29.3578434,37.4309442 30.8184934,35.5723296 32.2440217,33.5084777 C34.751666,33.2860225 37.1206598,32.9221509 39.2690526,32.4255868 C39.3746473,32.8525906 39.4687643,33.2711003 39.5497967,33.6804271 L39.5497967,33.6804271 Z M18.0061849,43.5834728 C16.4091801,44.1475311 15.1372232,44.1636011 14.3684479,43.7202977 C12.7321894,42.7767569 12.0522514,39.1334499 12.9798778,34.2470107 C13.0901875,33.6695363 13.2164906,33.0952325 13.3586414,32.5247618 C15.4831606,32.9946956 17.8349379,33.3328551 20.3485506,33.536715 C21.7834906,35.5562596 23.2863784,37.4125785 24.8009735,39.0381775 C24.4790817,39.3495835 24.1495724,39.6530165 23.812745,39.9482008 C21.800248,41.7076403 19.783619,42.9555935 18.0064145,43.5834728 L18.0061849,43.5834728 Z M10.5243422,29.4464314 C7.99511989,28.5818634 5.90641106,27.4583382 4.47468482,26.2324239 C3.18826606,25.1304785 2.53862918,24.0365681 2.53862918,23.1488134 C2.53862918,21.2601248 5.35456404,18.8507671 10.0510025,17.2132303 C10.6404732,17.0085938 11.2358079,16.8212594 11.8362414,16.6514677 C12.4854192,18.762841 13.3368338,20.970405 14.364316,23.2027628 C13.3235196,25.4684085 12.4599387,27.711097 11.8047926,29.8472641 C11.3747562,29.7241658 10.9478105,29.5905145 10.5243422,29.4464314 L10.5243422,29.4464314 Z M13.0324456,12.3731646 C12.0575312,7.39076435 12.7048725,3.63244177 14.3340149,2.68936015 C16.0694406,1.68475325 19.9064302,3.11728229 23.9507067,6.70847648 C24.2091842,6.93804844 24.4688094,7.17841029 24.7288937,7.42703672 C23.2221034,9.04528948 21.7329887,10.8876045 20.3104447,12.8954408 C17.8709778,13.1215692 15.5357284,13.4847521 13.3889424,13.9712151 C13.2567019,13.4415351 13.1378319,12.9086058 13.0324456,12.3729351 L13.0324456,12.3731646 Z M35.406353,17.898273 C34.8992867,17.0223252 34.3734103,16.1574034 33.8290898,15.3041099 C35.4841717,15.5130203 37.0696989,15.7908024 38.558584,16.1307985 C38.111643,17.5635571 37.5545163,19.0617437 36.8984519,20.5975802 C36.4191018,19.6879678 35.9216364,18.7880193 35.406353,17.898273 L35.406353,17.898273 Z M26.2822834,9.01062411 C27.3042563,10.1178497 28.3278361,11.3543243 29.3346585,12.6957132 C27.292322,12.5991966 25.2465779,12.598737 23.2041982,12.6943358 C24.2119388,11.3653437 25.2442417,10.1307057 26.2822834,9.01062411 L26.2822834,9.01062411 Z M17.0996775,17.9134248 C16.5908456,18.796095 16.1026816,19.6905213 15.6355842,20.5959731 C14.9903088,19.0654169 14.4382323,17.5605727 13.9873889,16.1073822 C15.4673214,15.7761098 17.0455028,15.5054445 18.6897958,15.2999776 C18.139375,16.1585594 17.6091895,17.0299486 17.0996775,17.9134248 L17.0996775,17.9134248 Z M18.7370838,31.1558242 C17.0383867,30.9661978 15.4363316,30.7093068 13.9568582,30.3872173 C14.4148178,28.9083147 14.9790607,27.3711009 15.6381093,25.8077158 C16.1071759,26.7138388 16.597485,27.6088047 17.1086301,28.4918712 C17.6302016,29.392672 18.1731738,30.2809087 18.7370838,31.1558242 L18.7370838,31.1558242 Z M26.3435742,37.4435707 C25.2933661,36.3101739 24.2459128,35.056711 23.2227921,33.7084349 C24.2158412,33.7474621 25.2284025,33.7672053 26.2574916,33.7672053 C27.3148158,33.7672053 28.3599736,33.7435594 29.3886036,33.697645 C28.3785675,35.0704853 27.3586605,36.3257848 26.3435742,37.4435707 Z M36.9195708,25.7280543 C37.6128229,27.3084277 38.1972665,28.837377 38.661424,30.2912562 C37.1573884,30.6344663 35.5337553,30.910871 33.8228918,31.1161083 C34.3711466,30.2468832 34.9020563,29.3668363 35.4153056,28.4764899 C35.9370548,27.5716195 36.4386008,26.6552474 36.9195708,25.7280543 L36.9195708,25.7280543 Z M33.4957778,27.3694939 C32.7100615,28.7345187 31.8801691,30.0736308 31.0074161,31.3847075 C29.4684883,31.4946725 27.8781405,31.5513767 26.2574916,31.5513767 C24.6434997,31.5513767 23.0733526,31.5011005 21.5612826,31.4030732 C20.6658939,30.0950492 19.8203023,28.7536194 19.0263214,27.3816612 C18.2360518,26.016982 17.4978874,24.6227817 16.8134241,23.2020741 C17.4961465,21.7809408 18.2320802,20.3859937 19.0196644,19.0201912 L19.0196644,19.0206503 C19.8070014,17.654557 20.6459361,16.3188629 21.5346544,15.0164562 C23.077255,14.8998336 24.6588798,14.8387675 26.2577211,14.8387675 C27.8636786,14.8387675 29.4473693,14.9002928 30.9895109,15.0178336 C31.8692399,16.3182362 32.7028089,17.6492809 33.4886617,19.008483 C34.2789541,20.3712468 35.0247092,21.7593608 35.724744,23.1706227 C35.0319102,24.5962631 34.2885268,25.9967745 33.4960074,27.3694939 L33.4957778,27.3694939 Z M38.06688,2.623473 C39.8036831,3.62532504 40.4792595,7.66510284 39.3879614,12.962935 C39.3164326,13.3080568 39.2386778,13.6518586 39.1547349,13.9941723 C37.0028988,13.4976081 34.6660424,13.1279972 32.2194594,12.8984253 C30.7941607,10.8687796 29.317442,9.02325057 27.8349844,7.42588886 C28.2234496,7.05135321 28.6211593,6.68652732 29.0277452,6.33174889 C32.8571595,2.99882315 36.4361308,1.68291667 38.06688,2.623473 L38.06688,2.623473 Z" id="Shape" fill="#FFFFFF"></path>
                <path d="M26.2786314,18.5203225 C28.8356249,18.5203225 30.9082489,20.5931247 30.9082489,23.1498253 C30.9082489,25.7067555 28.8356249,27.7795576 26.2786314,27.7795576 C23.7218673,27.7795576 21.6490138,25.7067555 21.6490138,23.1498253 C21.6490138,20.5931247 23.7218673,18.5203225 26.2786314,18.5203225" id="Path" fill="#000000"></path>
            </g>
            <path d="M90.477477,35.9022556 L77.9523554,22.8583857 C75.2619378,20.0567563 75.3648787,15.6167821 78.1822804,12.9414258 C80.9996821,10.2660696 85.4646518,10.3684342 88.1550694,13.1700637 L90.9340187,16.0650461 L93.845299,13.3016538 C96.6636142,10.6253892 101.130065,10.7277538 103.821396,13.5302917 C106.512727,16.3328295 106.409786,20.7742765 103.591471,23.4505412 L90.477477,35.9022556 Z" id="Path" fill="#FF3F31" fill-rule="nonzero"></path>
        </g>
    </g>
</svg>