<svg width="564" height="148" viewBox="0 0 564 148" fill="none" xmlns="http://www.w3.org/2000/svg">
<path d="M34.3767 30.416L11.0705 94.4493C4.95643 111.248 13.6177 129.822 30.416 135.936C47.2142 142.05 65.7883 133.389 71.9024 116.59L95.2087 52.557C101.323 35.7587 92.6615 17.1846 75.8632 11.0705C59.0649 4.95643 40.4908 13.6177 34.3767 30.416Z" fill="#0066FF"/>
<path d="M103.77 68.1644C103.77 68.1644 120.942 63.9652 127.9 81.4839L128.977 84.4264L140.685 116.603C146.802 133.395 165.371 142.051 182.165 135.94C190.232 133.005 196.802 126.985 200.43 119.205C204.058 111.425 204.447 102.522 201.51 94.456L178.204 30.4186C175.271 22.3495 169.252 15.7763 161.472 12.1454C153.692 8.51442 144.788 8.12325 136.72 11.0579C127.46 14.4166 120.239 21.817 117.109 31.1562L103.77 68.1644Z" fill="#D1D5E4"/>
<path d="M140.685 116.591L128.977 84.4264L127.908 81.4956C120.949 63.9769 103.778 68.1761 103.778 68.1761L94.205 94.4521C91.2672 102.519 91.655 111.423 95.2831 119.204C98.9112 126.985 105.482 133.005 113.55 135.94C125.538 140.307 138.973 137.225 147.858 128.069C144.682 124.793 142.237 120.881 140.685 116.591Z" fill="#D1D5E4"/>
<path d="M140.685 116.591L128.977 84.4264L127.908 81.4956C120.949 63.9769 103.778 68.1761 103.778 68.1761L94.205 94.4521C91.2672 102.519 91.655 111.423 95.2831 119.204C98.9112 126.985 105.482 133.005 113.55 135.94C125.538 140.307 138.973 137.225 147.858 128.069C144.682 124.793 142.237 120.881 140.685 116.591Z" fill="url(#paint0_linear)" fill-opacity="0.4"/>
<path d="M283.578 105.426V79.2555C283.578 72.8123 280.21 66.9663 273.567 66.9663C267.027 66.9663 263.159 72.8201 263.159 79.2555V105.426H251.061V56.4566H262.266L263.155 62.4042C265.735 57.4518 271.382 55.6644 276.034 55.6644C281.888 55.6644 287.742 58.045 290.505 64.7847C294.868 57.8459 300.519 55.8634 306.86 55.8634C320.738 55.8634 327.579 64.3867 327.579 79.0604V105.426H315.481V79.0604C315.481 72.6172 312.804 67.1653 306.263 67.1653C299.723 67.1653 295.656 72.8123 295.656 79.2633V105.434L283.578 105.426Z" fill="#031A34"/>
<path d="M338.155 105.426V58.244H350.842V105.426H338.155ZM355.6 36.2374H342.616L338.452 50.314V50.9072H348.263L355.6 36.733V36.2374Z" fill="#031A34"/>
<path d="M392.19 69.542C388.721 66.2716 384.775 65.1828 380.092 65.1828C374.344 65.1828 371.171 66.9663 371.171 70.0376C371.171 73.2104 374.047 74.9939 380.291 75.3919C389.509 75.9851 401.205 78.0691 401.205 91.053C401.205 99.6777 394.181 107.112 380.194 107.112C372.459 107.112 364.728 105.824 357.59 98.3898L363.537 89.7651C367.007 93.6287 374.937 96.5049 380.389 96.6025C384.951 96.7039 389.213 94.3233 389.213 90.7486C389.213 87.3768 386.438 85.9913 379.499 85.5933C370.281 84.8986 359.276 81.5307 359.276 70.4279C359.276 59.1104 370.984 55.161 379.893 55.161C387.527 55.161 393.275 56.6479 398.926 61.6041L392.19 69.542Z" fill="#031A34"/>
<path d="M425.081 42.7781V56.6557H438.561V67.0638H424.98V88.1768C424.98 92.8365 427.559 95.1156 431.325 95.1156C433.362 95.0587 435.362 94.5508 437.179 93.6287L440.551 103.939C437.377 105.265 433.98 105.971 430.541 106.019C419.934 106.41 412.979 100.372 412.979 88.1768V67.0638H403.859V56.6557H412.979V44.0659L425.081 42.7781Z" fill="#031A34"/>
<path d="M509.919 99.182C504.268 104.732 498.321 106.913 491.085 106.913C476.911 106.913 465.114 98.3898 465.114 81.0429C465.114 63.6959 476.911 55.1688 491.085 55.1688C498.024 55.1688 503.379 57.1513 508.729 62.4042L501.096 70.4357C498.409 67.988 494.918 66.6117 491.284 66.5682C483.155 66.5682 477.208 72.5157 477.208 81.0429C477.208 90.3583 483.553 95.3146 491.085 95.3146C494.953 95.3146 498.816 94.2258 501.79 91.252L509.919 99.182Z" fill="#031A34"/>
<path d="M552.184 56.5581H563.783V105.426H552.383L551.79 98.2884C549.011 104.037 541.382 106.815 535.93 106.913C521.455 107.011 510.75 98.0893 510.75 80.9414C510.75 64.0901 521.951 55.2702 536.227 55.3678C542.767 55.3678 549.011 58.443 551.79 63.2978L552.184 56.5581ZM522.845 80.9414C522.845 90.2608 529.288 95.8102 537.315 95.8102C556.348 95.8102 556.348 66.174 537.315 66.174C529.288 66.174 522.845 71.6259 522.845 80.9414Z" fill="#031A34"/>
<path d="M445.976 56.3591V105.426H458.074V56.3591H445.976Z" fill="#031A34"/>
<path d="M459.233 42.7508C459.233 52.5384 444.403 52.5384 444.403 42.7508C444.403 32.9631 459.233 32.9592 459.233 42.7508Z" fill="#031A34"/>
<defs>
<linearGradient id="paint0_linear" x1="155.131" y1="45.6532" x2="96.1446" y2="138.085" gradientUnits="userSpaceOnUse">
<stop/>
<stop offset="1" stop-opacity="0"/>
</linearGradient>
</defs>
</svg>
