<svg xmlns="http://www.w3.org/2000/svg" width="1566" height="458" viewBox="0 0 1566 458">
  <defs>
    <linearGradient id="misticaweb-a" x1="24.591%" x2="89.844%" y1="107.73%" y2="-24.007%">
      <stop offset="0%" stop-color="#003245" stop-opacity="0"/>
      <stop offset="100%" stop-color="#003245"/>
    </linearGradient>
  </defs>
  <g fill="none" fill-rule="evenodd">
    <rect width="1566" height="458" fill="#FFF"/>
    <rect width="1566" height="804" y="-173" fill="#FFF" fill-opacity=".908"/>
    <g stroke="#EAEAEA" stroke-width="4" opacity=".43" transform="translate(-842 -532)">
      <path d="M1044.22013 526.276829L761.554402 1301.91897C687.40559 1505.3974 462.138223 1610.30857 258.40648 1536.24723 54.6747378 1462.18589-50.3717795 1237.19861 23.7817659 1033.72491L306.442756 258.08277C380.596301 54.6090699 605.863668-50.306835 809.595411 23.7497824L809.595411 23.7545096C1013.32715 97.811127 1118.36894 322.803129 1044.22013 526.276829zM1204 715.649325C1204 715.649325 1411.34121 665.035327 1495.38567 876.138036L1508.2788 911.48562 1649.70549 1299.2412C1723.5415 1501.67357 1947.84312 1606.0484 2150.70038 1532.37177 2353.55765 1458.69042 2458.1563 1234.85388 2384.32029 1032.42151L2102.86844 260.761212C2029.03243 58.3241178 1804.7308-46.0507166 1601.8688 27.63064 1485.65545 69.8388969 1401.69623 161.328708 1365.05284 269.8379L1204 715.649325z"/>
      <path d="M1204.88168,713.318647 L1089.62285,1030.21611 C1015.96414,1232.73327 1120.31162,1456.65359 1322.68177,1530.36409 C1471.67604,1584.62833 1632.25241,1542.3372 1736,1435.43949"/>
    </g>
    <g transform="translate(386 153)">
      <g fill-rule="nonzero">
        <rect width="136.196" height="66.352" x="-13.429" y="42.428" fill="#003245" rx="33.176" transform="rotate(-70 54.67 75.604)"/>
        <path fill="#00EDFF" d="M106.564,70.132 C106.564,70.132 124.164,65.828 131.296,83.784 L132.4,86.8 L144.4,119.78 C150.670154,136.991021 169.702556,145.863497 186.916,139.6 L186.916,139.6 C195.184283,136.591416 201.918575,130.421192 205.637133,122.446958 C209.355692,114.472724 209.75385,105.347823 206.744,97.08 L182.856,31.444 C179.849711,23.1734645 173.6807,16.4361589 165.706409,12.7145728 C157.732117,8.99298664 148.605933,8.59205514 140.336,11.6 L140.336,11.6 C130.84533,15.0424835 123.444294,22.6276255 120.236,32.2 L106.564,70.132 Z"/>
        <path fill="#00EDFF" d="M144.4,119.768 L132.4,86.8 L131.304,83.796 C124.172,65.84 106.572,70.144 106.572,70.144 L96.76,97.076 C93.7489096,105.344316 94.1464288,114.470233 97.8650755,122.445407 C101.583722,130.42058 108.318758,136.591453 116.588,139.6 L116.588,139.6 C128.875025,144.075947 142.645116,140.916549 151.752,131.532 C148.497029,128.174673 145.991217,124.165102 144.4,119.768 Z"/>
        <path fill="url(#misticaweb-a)" d="M144.4,119.768 L132.4,86.8 L131.304,83.796 C124.172,65.84 106.572,70.144 106.572,70.144 L96.76,97.076 C93.7489096,105.344316 94.1464288,114.470233 97.8650755,122.445407 C101.583722,130.42058 108.318758,136.591453 116.588,139.6 L116.588,139.6 C128.875025,144.075947 142.645116,140.916549 151.752,131.532 C148.497029,128.174673 145.991217,124.165102 144.4,119.768 Z"/>
        <path fill="#003245" d="M290.86 108.324L290.86 81.5C290.86 74.896 287.408 68.904 280.6 68.904 273.896 68.904 269.932 74.904 269.932 81.5L269.932 108.324 257.532 108.324 257.532 58.132 269.016 58.132 269.928 64.228C272.572 59.152 278.36 57.32 283.128 57.32 289.128 57.32 295.128 59.76 297.96 66.668 302.432 59.556 308.224 57.524 314.724 57.524 328.948 57.524 335.96 66.26 335.96 81.3L335.96 108.324 323.56 108.324 323.56 81.3C323.56 74.696 320.816 69.108 314.112 69.108 307.408 69.108 303.24 74.896 303.24 81.508L303.24 108.332 290.86 108.324zM346.8 108.324L346.8 59.964 359.804 59.964 359.804 108.324 346.8 108.324zM364.68 37.408L351.372 37.408 347.104 51.836 347.104 52.444 357.16 52.444 364.68 37.916 364.68 37.408zM402.184 71.544C398.628 68.192 394.584 67.076 389.784 67.076 383.892 67.076 380.64 68.904 380.64 72.052 380.64 75.304 383.588 77.132 389.988 77.54 399.436 78.148 411.424 80.284 411.424 93.592 411.424 102.432 404.224 110.052 389.888 110.052 381.96 110.052 374.036 108.732 366.72 101.112L372.816 92.272C376.372 96.232 384.5 99.18 390.088 99.28 394.764 99.384 399.132 96.944 399.132 93.28 399.132 89.824 396.288 88.404 389.176 87.996 379.728 87.284 368.448 83.832 368.448 72.452 368.448 60.852 380.448 56.804 389.58 56.804 397.404 56.804 403.296 58.328 409.088 63.408L402.184 71.544zM435.896 44.112L435.896 58.336 449.712 58.336 449.712 69.004 435.792 69.004 435.792 90.644C435.792 95.42 438.436 97.756 442.296 97.756 444.384053 97.6976766 446.433211 97.1771904 448.296 96.232L451.752 106.8C448.499327 108.158693 445.016694 108.882375 441.492 108.932 430.62 109.332 423.492 103.144 423.492 90.644L423.492 69.004 414.144 69.004 414.144 58.336 423.492 58.336 423.492 45.432 435.896 44.112zM522.852 101.924C517.06 107.612 510.964 109.848 503.548 109.848 489.02 109.848 476.928 101.112 476.928 83.332 476.928 65.552 489.02 56.812 503.548 56.812 510.66 56.812 516.148 58.844 521.632 64.228L513.808 72.46C511.054907 69.951196 507.476464 68.5406005 503.752 68.496 495.42 68.496 489.324 74.592 489.324 83.332 489.324 92.88 495.828 97.96 503.548 97.96 507.512 97.96 511.472 96.844 514.52 93.796L522.852 101.924zM566.172 58.236L578.06 58.236 578.06 108.324 566.376 108.324 565.768 101.008C562.92 106.9 555.1 109.748 549.512 109.848 534.676 109.948 523.704 100.804 523.704 83.228 523.704 65.956 535.184 56.916 549.816 57.016 556.52 57.016 562.92 60.168 565.768 65.144L566.172 58.236zM536.1 83.228C536.1 92.78 542.704 98.468 550.932 98.468 570.44 98.468 570.44 68.092 550.932 68.092 542.704 68.092 536.1 73.68 536.1 83.228z"/>
        <polygon fill="#003245" points="457.312 58.032 457.312 108.324 469.712 108.324 469.712 58.032"/>
        <path fill="#003245" d="M470.9,44.084 C470.9,54.116 455.7,54.116 455.7,44.084 C455.7,34.052 470.9,34.048 470.9,44.084 Z"/>
      </g>
      <text fill="#003245" font-family="Nexa-Light, Nexa" font-size="104" font-weight="300">
        <tspan x="588" y="109">web</tspan>
      </text>
    </g>
  </g>
</svg>
