<svg width="1566" height="458" viewBox="0 0 1566 458" fill="none" xmlns="http://www.w3.org/2000/svg">
<g clip-path="url(#clip0_21_171)">
<path d="M1566 -173H0V631H1566V-173Z" fill="white"/>
<g opacity="0.5">
<path opacity="0.3" fill-rule="evenodd" clip-rule="evenodd" d="M202.22 -5.72314L-80.4456 769.919C-154.594 973.397 -379.862 1078.31 -583.594 1004.25C-787.325 930.186 -892.372 705.199 -818.218 501.725L-535.557 -273.917C-461.404 -477.391 -236.136 -582.307 -32.4046 -508.25V-508.245C171.327 -434.189 276.369 -209.197 202.22 -5.72314ZM362 183.649C362 183.649 569.341 133.035 653.386 344.138L666.279 379.486L807.705 767.241C881.541 969.674 1105.84 1074.05 1308.7 1000.37C1511.56 926.69 1616.16 702.854 1542.32 500.422L1260.87 -271.239C1187.03 -473.676 962.731 -578.051 759.869 -504.369C643.655 -462.161 559.696 -370.671 523.053 -262.162L362 183.649Z" stroke="#D1D5E4" stroke-width="4"/>
<path opacity="0.3" d="M362.882 181.319L247.623 498.216C173.964 700.733 278.312 924.654 480.682 998.364C629.676 1052.63 790.252 1010.34 894 903.439" stroke="#D1D5E4" stroke-width="4"/>
</g>
<path d="M676.86 261.324V234.5C676.86 227.896 673.408 221.904 666.6 221.904C659.896 221.904 655.932 227.904 655.932 234.5V261.324H643.532V211.132H655.016L655.928 217.228C658.572 212.152 664.36 210.32 669.128 210.32C675.128 210.32 681.128 212.76 683.96 219.668C688.432 212.556 694.224 210.524 700.724 210.524C714.948 210.524 721.96 219.26 721.96 234.3V261.324H709.56V234.3C709.56 227.696 706.816 222.108 700.112 222.108C693.408 222.108 689.24 227.896 689.24 234.508V261.332L676.86 261.324ZM732.8 261.324V212.964H745.804V261.324H732.8ZM750.68 190.408H737.372L733.104 204.836V205.444H743.16L750.68 190.916V190.408ZM788.184 224.544C784.628 221.192 780.584 220.076 775.784 220.076C769.892 220.076 766.64 221.904 766.64 225.052C766.64 228.304 769.588 230.132 775.988 230.54C785.436 231.148 797.424 233.284 797.424 246.592C797.424 255.432 790.224 263.052 775.888 263.052C767.96 263.052 760.036 261.732 752.72 254.112L758.816 245.272C762.372 249.232 770.5 252.18 776.088 252.28C780.764 252.384 785.132 249.944 785.132 246.28C785.132 242.824 782.288 241.404 775.176 240.996C765.728 240.284 754.448 236.832 754.448 225.452C754.448 213.852 766.448 209.804 775.58 209.804C783.404 209.804 789.296 211.328 795.088 216.408L788.184 224.544ZM821.896 197.112V211.336H835.712V222.004H821.792V243.644C821.792 248.42 824.436 250.756 828.296 250.756C830.384 250.698 832.433 250.177 834.296 249.232L837.752 259.8C834.499 261.159 831.017 261.882 827.492 261.932C816.62 262.332 809.492 256.144 809.492 243.644V222.004H800.144V211.336H809.492V198.432L821.896 197.112ZM908.852 254.924C903.06 260.612 896.964 262.848 889.548 262.848C875.02 262.848 862.928 254.112 862.928 236.332C862.928 218.552 875.02 209.812 889.548 209.812C896.66 209.812 902.148 211.844 907.632 217.228L899.808 225.46C897.055 222.951 893.476 221.541 889.752 221.496C881.42 221.496 875.324 227.592 875.324 236.332C875.324 245.88 881.828 250.96 889.548 250.96C893.512 250.96 897.472 249.844 900.52 246.796L908.852 254.924ZM952.172 211.236H964.06V261.324H952.376L951.768 254.008C948.92 259.9 941.1 262.748 935.512 262.848C920.676 262.948 909.704 253.804 909.704 236.228C909.704 218.956 921.184 209.916 935.816 210.016C942.52 210.016 948.92 213.168 951.768 218.144L952.172 211.236ZM922.1 236.228C922.1 245.78 928.704 251.468 936.932 251.468C956.44 251.468 956.44 221.092 936.932 221.092C928.704 221.092 922.1 226.68 922.1 236.228Z" fill="#031A34"/>
<g clip-path="url(#clip1_21_171)">
<path d="M446.647 197.686L431.298 239.924C427.271 251.004 432.975 263.256 444.038 267.289C455.101 271.322 467.333 265.609 471.36 254.529L486.709 212.291C490.735 201.21 485.031 188.959 473.968 184.926C462.906 180.893 450.673 186.606 446.647 197.686Z" fill="#0066FF"/>
<path d="M492.347 222.586C492.347 222.586 503.656 219.816 508.238 231.372L508.948 233.313L516.658 254.537C520.687 265.613 532.916 271.323 543.976 267.292C549.289 265.356 553.616 261.385 556.005 256.253C558.394 251.122 558.65 245.249 556.716 239.928L541.367 197.688C539.436 192.366 535.472 188.03 530.348 185.635C525.224 183.24 519.361 182.982 514.047 184.917C507.949 187.133 503.193 192.014 501.132 198.175L492.347 222.586Z" fill="#D1D5E4"/>
<path d="M516.658 254.529L508.948 233.313L508.243 231.379C503.661 219.824 492.352 222.594 492.352 222.594L486.048 239.926C484.113 245.247 484.369 251.12 486.758 256.252C489.147 261.385 493.475 265.356 498.788 267.292C506.683 270.173 515.53 268.14 521.382 262.1C519.29 259.939 517.68 257.359 516.658 254.529Z" fill="#D1D5E4"/>
<path d="M516.658 254.529L508.948 233.313L508.243 231.379C503.661 219.824 492.352 222.594 492.352 222.594L486.048 239.926C484.113 245.247 484.369 251.12 486.758 256.252C489.147 261.385 493.475 265.356 498.788 267.292C506.683 270.173 515.53 268.14 521.382 262.1C519.29 259.939 517.68 257.359 516.658 254.529Z" fill="url(#paint0_linear_21_171)" fill-opacity="0.4"/>
</g>
<path d="M843.312 211.032V261.324H855.712V211.032H843.312Z" fill="#031A34"/>
<path d="M856.9 197.084C856.9 207.116 841.7 207.116 841.7 197.084C841.7 187.052 856.9 187.048 856.9 197.084Z" fill="#031A34"/>
<path d="M1033.33 263L1051.7 211.13H1046.03L1030.49 257.015L1014.74 211.13H1011.07L995.21 257.015L979.565 211.13H973.895L992.375 263H998.045L1006.45 240.425L1012.96 220.16L1019.26 240.32L1027.66 263H1033.33Z" fill="#031A34"/>
<path d="M1083.48 263.735C1091.77 263.735 1100.8 260.375 1105.84 253.76L1102.17 250.82C1098.28 255.965 1090.3 258.695 1083.48 258.695C1072.77 258.695 1063.42 251.66 1062.37 239.48H1109.1C1109.2 238.115 1109.31 236.75 1109.31 235.49C1109.31 218.06 1097.02 210.29 1083.48 210.29C1068.88 210.29 1057.12 221.525 1057.12 237.065C1057.12 253.55 1068.88 263.735 1083.48 263.735ZM1104.48 234.965H1062.37C1063.53 222.26 1072.77 215.015 1083.48 215.015C1095.97 215.015 1104.37 222.155 1104.48 234.965Z" fill="#031A34"/>
<path d="M1127.45 189.5H1122.41V263H1127.45V251.555C1131.75 259.43 1140.26 263.84 1149.08 263.84C1163.57 263.84 1175.01 254.285 1175.01 237.065C1175.01 219.95 1163.46 210.29 1148.97 210.29C1140.05 210.29 1131.65 214.07 1127.45 222.47V189.5ZM1148.76 215.225C1160.42 215.225 1169.97 222.47 1169.97 237.065C1169.97 251.45 1160.42 258.8 1148.76 258.8C1136.58 258.8 1127.55 249.875 1127.55 236.96C1127.55 224.045 1136.79 215.225 1148.76 215.225Z" fill="#031A34"/>
</g>
<defs>
<linearGradient id="paint0_linear_21_171" x1="526.172" y1="207.737" x2="487.237" y2="268.651" gradientUnits="userSpaceOnUse">
<stop/>
<stop offset="1" stop-opacity="0"/>
</linearGradient>
<clipPath id="clip0_21_171">
<rect width="1566" height="458" rx="24" fill="white"/>
</clipPath>
<clipPath id="clip1_21_171">
<rect width="129.447" height="85.8293" fill="white" transform="translate(429.59 183.206)"/>
</clipPath>
</defs>
</svg>
