<svg width="189" height="48" viewBox="0 0 189 48" fill="none" xmlns="http://www.w3.org/2000/svg">
<g clip-path="url(#clip0)">
<path d="M148.594 5.67394C153.065 1.78287 157.491 0.155069 160.197 1.71627C163.019 3.34408 163.846 8.28903 162.582 14.4273C162.503 14.8086 162.417 15.1885 162.324 15.5666C162.885 15.728 163.441 15.9035 163.994 16.093C169.597 18.0223 173.217 21.0446 173.217 24.1695C173.217 27.4286 169.348 30.6151 163.401 32.586C163.086 32.6902 162.764 32.7904 162.436 32.8873C162.553 33.3585 162.657 33.8213 162.747 34.2744C163.921 40.2066 163.017 45.0825 160.234 46.6937C157.54 48.2538 153.186 46.7213 148.777 42.9262C148.297 42.5127 147.83 42.0859 147.374 41.6464C147.013 41.9961 146.652 42.3298 146.292 42.6444C141.74 46.6244 137.066 48.2756 134.28 46.6692C131.584 45.1133 130.736 40.5746 131.822 34.8584C131.94 34.2372 132.076 33.6194 132.229 33.0058C131.758 32.8713 131.29 32.725 130.826 32.5671C125.105 30.6114 121.34 27.3856 121.34 24.1695C121.34 21.0559 124.848 18.0538 130.34 16.1385C130.954 15.9244 131.596 15.7232 132.26 15.5345C132.118 14.9649 131.99 14.3918 131.877 13.8157C130.739 7.99852 131.539 3.34959 134.243 1.78402C137.063 0.151395 141.758 1.90459 146.443 6.0655C146.735 6.32489 147.021 6.58965 147.303 6.85965C147.723 6.4536 148.154 6.05823 148.594 5.67394ZM160.269 33.4256C158.121 33.9221 155.752 34.286 153.244 34.5085C151.818 36.5723 150.358 38.4309 148.896 40.0297C149.333 40.4498 149.768 40.847 150.201 41.2189C153.97 44.4632 157.466 45.6932 159.101 44.7469C159.869 44.3022 160.49 43.192 160.799 41.5267C161.143 39.6734 161.069 37.3026 160.55 34.6804C160.469 34.2711 160.375 33.8526 160.269 33.4256ZM134.359 33.5248C134.216 34.0952 134.09 34.6695 133.98 35.247C133.052 40.1334 133.732 43.7768 135.368 44.7203C136.137 45.1636 137.409 45.1475 139.006 44.5835C140.784 43.9556 142.8 42.7076 144.813 40.9482C145.15 40.653 145.479 40.3496 145.801 40.0382C144.286 38.4126 142.783 36.5563 141.349 34.5367C138.835 34.3329 136.483 33.9947 134.359 33.5248ZM150.389 34.6976C149.36 34.7436 148.315 34.7672 147.257 34.7672C146.228 34.7672 145.216 34.7475 144.223 34.7084C145.246 36.0567 146.293 37.3102 147.344 38.4436C148.359 37.3258 149.379 36.0705 150.389 34.6976ZM147.258 15.8388C145.659 15.8388 144.077 15.8998 142.535 16.0165C141.646 17.3189 140.807 18.6546 140.02 20.0207L139.553 20.8431C138.94 21.945 138.36 23.0652 137.813 24.2021C138.498 25.6228 139.236 27.017 140.026 28.3817C140.82 29.7536 141.666 31.095 142.561 32.4031C144.073 32.5011 145.643 32.5514 147.257 32.5514C148.878 32.5514 150.468 32.4947 152.007 32.3847C152.88 31.0736 153.71 29.7345 154.496 28.3695C155.289 26.9968 156.032 25.5963 156.725 24.1706C156.025 22.7594 155.279 21.3712 154.489 20.0085C153.703 18.6493 152.869 17.3182 151.99 16.0178C150.447 15.9003 148.864 15.8388 147.258 15.8388ZM136.638 26.8077C135.979 28.3711 135.415 29.9083 134.957 31.3872C136.436 31.7093 138.038 31.9662 139.737 32.1558C139.173 31.2809 138.63 30.3927 138.109 29.4919C137.597 28.6088 137.107 27.7138 136.638 26.8077ZM157.92 26.7281C157.439 27.6552 156.937 28.5716 156.415 29.4765C155.902 30.3668 155.371 31.2469 154.823 32.1161C156.534 31.9109 158.157 31.6345 159.661 31.2913C159.197 29.8374 158.613 28.3084 157.92 26.7281ZM132.836 17.6515C132.236 17.8213 131.64 18.0086 131.051 18.2132C126.355 19.8508 123.539 22.2601 123.539 24.1488C123.539 25.0366 124.188 26.1305 125.475 27.2324C126.906 28.4583 128.995 29.5819 131.524 30.4464C131.948 30.5905 132.375 30.7242 132.805 30.8473C133.46 28.7111 134.324 26.4684 135.364 24.2028C134.337 21.9704 133.485 19.7628 132.836 17.6515ZM161.707 17.6841C161.069 19.7491 160.217 21.9307 159.182 24.1598C160.266 26.4429 161.152 28.653 161.809 30.7313C162.105 30.6434 162.397 30.5527 162.68 30.4588C167.814 28.7575 170.976 26.1541 170.976 24.1488C170.976 22.2663 168.049 19.823 163.249 18.1708C162.752 17.9997 162.237 17.8379 161.707 17.6841ZM154.829 16.3041C155.373 17.1574 155.899 18.0223 156.406 18.8983C156.922 19.788 157.419 20.688 157.898 21.5976C158.555 20.0617 159.112 18.5636 159.559 17.1308C158.07 16.7908 156.484 16.513 154.829 16.3041ZM139.69 16.3C138.046 16.5054 136.467 16.7761 134.987 17.1074C135.438 18.5606 135.99 20.0654 136.636 21.596C137.103 20.6905 137.591 19.7961 138.1 18.9134C138.609 18.0299 139.139 17.1586 139.69 16.3ZM159.067 3.62347C157.436 2.68292 153.857 3.99882 150.028 7.33175C149.621 7.68653 149.223 8.05135 148.835 8.42589C150.317 10.0233 151.794 11.8688 153.219 13.8984C155.666 14.128 158.003 14.4976 160.155 14.9942C160.239 14.6519 160.316 14.3081 160.388 13.9629C161.479 8.6651 160.804 4.62532 159.067 3.62347ZM144.951 7.70848C140.906 4.11728 137.069 2.68475 135.334 3.68936C133.705 4.63244 133.058 8.39076 134.032 13.3732C134.138 13.9086 134.257 14.4415 134.389 14.9712C136.536 14.4848 138.871 14.1216 141.31 13.8954C142.733 11.8876 144.222 10.0453 145.729 8.42704C145.469 8.17841 145.209 7.93805 144.951 7.70848ZM147.282 10.0106C146.244 11.1307 145.212 12.3653 144.204 13.6943C146.247 13.5987 148.292 13.5992 150.335 13.6957C149.328 12.3543 148.304 11.1178 147.282 10.0106Z" fill="#61DAFB"/>
<path d="M147.279 19.5203C149.836 19.5203 151.908 21.5931 151.908 24.1498C151.908 26.7068 149.836 28.7796 147.279 28.7796C144.722 28.7796 142.649 26.7068 142.649 24.1498C142.649 21.5931 144.722 19.5203 147.279 19.5203Z" fill="#61DAFB"/>
<path d="M85.5872 37L72.9671 23.9049C70.2563 21.0923 70.3601 16.6349 73.1988 13.949C76.0376 11.2632 80.5364 11.366 83.2472 14.1786L86.0472 17.0849L88.9805 14.3107C91.8202 11.6239 96.3204 11.7267 99.0322 14.5402C101.744 17.3538 101.64 21.8126 98.8005 24.4994L85.5872 37Z" fill="#031A34"/>
<path d="M8.60504 13.6209L3.06529 28.8654C1.61201 32.8646 3.67074 37.2866 7.66358 38.7422C11.6564 40.1978 16.0714 38.1358 17.5247 34.1366L23.0644 18.892C24.5177 14.8928 22.459 10.4708 18.4661 9.01524C14.4733 7.55965 10.0583 9.62165 8.60504 13.6209Z" fill="#0066FF"/>
<path d="M25.0994 22.6077C25.0994 22.6077 29.1809 21.608 30.8349 25.7787L31.0909 26.4792L33.8737 34.1396C35.3278 38.1373 39.7415 40.1981 43.7334 38.7433C45.6508 38.0445 47.2126 36.6113 48.0749 34.7591C48.9373 32.9069 49.0296 30.7874 48.3316 28.867L42.7919 13.6215C42.0947 11.7005 40.6641 10.1356 38.8148 9.27113C36.9655 8.4067 34.8491 8.31357 32.9313 9.01224C30.7303 9.81184 29.014 11.5737 28.27 13.7971L25.0994 22.6077Z" fill="#D1D5E4"/>
<path d="M33.8737 34.1368L31.0909 26.4792L30.8367 25.7815C29.1828 21.6108 25.1012 22.6105 25.1012 22.6105L22.8258 28.8661C22.1275 30.7866 22.2197 32.9063 23.0821 34.7587C23.9444 36.6111 25.5063 38.0445 27.424 38.7433C30.2734 39.7829 33.4668 39.0491 35.5787 36.8693C34.8238 36.0895 34.2427 35.1582 33.8737 34.1368Z" fill="#D1D5E4"/>
<path d="M33.8737 34.1368L31.0909 26.4792L30.8367 25.7815C29.1828 21.6108 25.1012 22.6105 25.1012 22.6105L22.8258 28.8661C22.1275 30.7866 22.2197 32.9063 23.0821 34.7587C23.9444 36.6111 25.5063 38.0445 27.424 38.7433C30.2734 39.7829 33.4668 39.0491 35.5787 36.8693C34.8238 36.0895 34.2427 35.1582 33.8737 34.1368Z" fill="url(#paint0_linear)" fill-opacity="0.4"/>
</g>
<defs>
<linearGradient id="paint0_linear" x1="37.3075" y1="17.2484" x2="23.2551" y2="39.2336" gradientUnits="userSpaceOnUse">
<stop/>
<stop offset="1" stop-opacity="0"/>
</linearGradient>
<clipPath id="clip0">
<rect width="189" height="48" fill="white"/>
</clipPath>
</defs>
</svg>
