<svg xmlns="http://www.w3.org/2000/svg" xmlns:xlink="http://www.w3.org/1999/xlink" width="72" height="146" viewBox="0 0 72 146">
  <defs>
    <polygon id="ilustration-a" points=".022 .139 71.817 .139 71.817 3.379 .022 3.379"/>
  </defs>
  <g fill="none" fill-rule="evenodd" transform="translate(-279 -304)">
    <rect width="375" height="1038" fill="#FFF"/>
    <g transform="translate(16 292)">
      <rect width="342" height="167" x=".5" y=".5" fill="#FFF" stroke="#DDD" rx="4"/>
      <g transform="matrix(-1 0 0 1 335 11.986)">
        <path fill="#94E37A" fill-rule="nonzero" d="M34.9962299,7.07787537 C35.0403293,6.39759561 34.695595,6.05816386 34.0649255,6.01756423 C33.4337819,5.97696461 33.0482674,6.26965958 33.0036937,6.94993934 C32.9600685,7.62974702 33.3048028,7.96965086 33.9354723,8.01025049 C34.5666159,8.05037802 34.9521304,7.75768305 34.9962299,7.07787537"/>
        <path fill="#3AD5F1" fill-rule="nonzero" d="M31.6900295,2.34516434 C32.1919348,0.722092038 32.0283642,0.290112716 31.5972312,0.083122625 C31.1657371,-0.124317445 30.8122369,0.0592737666 30.3099705,1.68234607 C29.8080652,3.30541837 29.9716358,3.7373977 30.4027688,3.94483777 C30.8342629,4.15182786 31.1877631,3.96823665 31.6900295,2.34516434"/>
        <path fill="#FF7C9A" fill-rule="nonzero" d="M27.9962084,3.07784573 C28.0404638,2.39762497 27.6953333,2.05797358 27.0643869,2.01758261 C26.4337478,1.97688564 26.0477425,2.26941422 26.0037945,2.94994097 C25.9595391,3.63016172 26.3043623,3.96981311 26.9353087,4.01020409 C27.5662551,4.05059506 27.951953,3.75806648 27.9962084,3.07784573"/>
        <path fill="#07B1E4" fill-rule="nonzero" d="M32,35.0138672 C32.9092597,35.0364625 53.6257156,52.5994789 52.9854627,54.2602287 C52.3058225,56.0217881 51.7611047,57.0989725 49.9107402,57.0085916 C47.8093865,56.9056095 36.0179223,48.2090507 36.0179223,48.2090507 L32,35.0138672 Z"/>
        <path fill="#07B1E4" fill-rule="nonzero" d="M48,50.6622541 C48.2691195,50.0876962 53.7903958,36.6280061 56.2281318,31.0138672 C56.6237745,31.1914659 59.0701652,32.1612247 58.9984549,32.7274302 C58.111968,39.7003744 53.6609876,55.4539003 52.4419136,55.9743874 C51.0959041,56.5489453 48,50.6622541 48,50.6622541"/>
        <path fill="#FFD2AD" fill-rule="nonzero" d="M63.5842045,29.89278 L63.7258756,29.6470082 C63.9095596,29.3281691 63.7336919,28.9468125 63.3345701,28.8002871 C63.0263133,28.6865835 62.6731125,28.7463658 62.4435075,28.9261035 L62.6955844,28.4876997 C62.8792684,28.1688606 62.7034008,27.7878948 62.304279,27.6409787 C61.9256751,27.5014866 61.4801437,27.6233956 61.2783845,27.9090224 C61.3526397,27.6995888 61.4249409,27.490546 61.4928453,27.2842383 C62.0214252,25.6841817 61.8880589,24.0481775 61.048291,24.0145744 C60.0829732,23.9758917 60.3858563,25.5310139 59.732215,27.020102 C59.5270361,27.4870294 59.3355358,27.9652881 59.1650419,28.4177583 C58.8655784,29.0148002 57.8211201,31.0141872 57.3360186,30.8590657 C56.952041,30.7359845 56.8675268,30.351502 57.1923934,29.7021017 C57.51726,29.0527014 58.2231731,28.1469795 57.0976203,28.0598458 C56.4371396,28.0086596 55.4771955,29.5079068 55.0712344,31.1317982 C54.6652733,32.7556897 56.1269287,33.9900191 56.1269287,33.9900191 C57.1450068,35.0485181 58.3540967,35.0864193 59.1152127,34.9668546 C59.1191209,34.9664639 59.1235176,34.9652917 59.1269372,34.964901 C59.5734456,34.8933966 59.859719,34.7359307 59.859719,34.7359307 C61.416636,34.0681659 63.7371116,32.1606014 63.9818607,30.9856636 C64.0585585,30.6199364 63.885622,30.247176 63.5842045,29.89278"/>
        <g transform="translate(0 10.014)">
          <g transform="translate(0 131.779)">
            <mask id="ilustration-b" fill="#fff">
              <use xlink:href="#ilustration-a"/>
            </mask>
            <path fill="#E8F2F9" fill-rule="nonzero" d="M71.8166965,1.7590367 C71.8166965,2.65361248 55.7450259,3.37881862 35.9196141,3.37881862 C16.0942024,3.37881862 0.0221082353,2.65361248 0.0221082353,1.7590367 C0.0221082353,0.864460927 16.0942024,0.139254785 35.9196141,0.139254785 C55.7450259,0.139254785 71.8166965,0.864460927 71.8166965,1.7590367" mask="url(#ilustration-b)"/>
          </g>
          <path fill="#E74B72" fill-rule="nonzero" d="M25.9355012,17.988449 C27.93456,26.6457294 33.2523953,24.2411874 34.2739482,29.8924734 C34.9418541,33.5873502 32.5971953,35.1159006 30.5108894,37.025427 C29.0264188,31.7120355 26.7448659,22.0896439 25.9355012,17.988449"/>
          <path fill="#FF547D" fill-rule="nonzero" d="M41.4987671,33.016773 C41.2992847,30.2270313 40.2946729,26.1689179 36.3486494,24.5377321 C34.4690259,23.7605746 33.2005553,21.9777586 33.1103435,19.9508138 C33.0434259,18.4450713 32.7422965,16.6339566 31.9528376,14.7476603 C34.3690729,9.09468479 35.9365553,2.32454544 29.7771671,2.01790615 C29.7771671,2.01790615 29.6153788,1.11361591 27.1250259,0.372782144 C11.1177318,-1.45438255 13.4890729,12.0250751 13.4890729,12.0250751 L15.0934024,17.8609361 L26.5354729,21.88526 C26.6028141,21.9642428 26.6405082,22.0077467 26.6405082,22.0077467 L27.4257318,42.2628346 C27.4257318,42.2628346 42.1277082,41.8172361 41.4987671,33.016773"/>
          <path fill="#FFD2AD" fill-rule="nonzero" d="M33.9066635,10.0610209 C32.4632753,5.57758283 27.8993224,3.05984618 23.7432282,4.37003224 L23.7432282,4.36960987 C23.7419576,4.37003224 23.7406871,4.37045461 23.7389929,4.37129934 C23.7377224,4.37172171 23.7360282,4.37172171 23.7347576,4.37214408 L23.7347576,4.37256645 C19.5909459,5.7199209 17.3492047,10.4166549 18.7925929,14.900093 C18.8226635,14.9938587 19.2123106,16.4252645 20.00304,17.8389307 C22.1651576,21.9380138 25.0421929,23.1747078 29.3435576,21.7977875 C29.3448282,21.7969428 29.3469459,21.7965204 29.34864,21.7956757 C29.3503341,21.7952533 29.3520282,21.794831 29.3537224,21.7944086 C33.6550871,20.4174884 35.2721224,17.7413637 34.6380988,13.1531783 C34.4559812,11.5448003 33.9367341,10.1547866 33.9066635,10.0610209"/>
          <path fill="#FEA18E" fill-rule="nonzero" d="M31.6271012,16.5703902 C30.71016,16.9872675 29.8148188,16.9429189 29.7584894,16.9399623 C29.57976,16.9294031 29.44296,16.7760835 29.4539718,16.5978441 C29.4641365,16.4196047 29.6170306,16.2840245 29.7961835,16.293739 C29.8292188,16.2954285 31.5517129,16.3668087 32.4296894,15.1035055 C32.5313365,14.9565214 32.73336,14.9197754 32.8807482,15.0215661 C33.0281365,15.1233568 33.0649835,15.3248264 32.9624894,15.4718106 C32.5889365,16.01033 32.1048424,16.3532929 31.6271012,16.5703902"/>
          <path fill="#FF547D" fill-rule="nonzero" d="M22.0370824,15.6578215 C25.8259765,13.4948741 29.3285647,8.50206001 29.2853647,4.12886001 C28.2578824,3.30186314 27.3752471,2.36674002 26.7640941,1.30363935 C25.9975059,0.790039656 25.1923765,0.251097627 25.1911059,0.251097627 L24.5994353,0.421312246 C23.4592941,0.753715994 22.5300706,1.20396046 21.7736471,1.74374698 C17.6433882,2.74433716 14.5499294,7.21932789 13.7409882,9.22726615 C12.4979294,12.3122432 16.1038588,20.5095646 15.2606118,22.2129754 C14.4177882,23.9159639 8.56545882,25.8985601 9.68696471,34.728589 C10.8088941,43.5581955 22.6520471,43.0006695 22.6520471,43.0006695 C22.6520471,43.0006695 24.3228706,40.8474366 24.1915765,37.6251898 C23.8807059,30.0060905 21.6135529,16.9722312 21.7783059,16.346704 C21.8418353,16.1055317 21.9307765,15.8770306 22.0370824,15.6578215"/>
          <path fill="#E74B72" fill-rule="nonzero" d="M21.7639059 16.6747573C21.3882353 26.4665185 15.7362353 25.4849349 17.2287529 33.3097276 17.9322353 36.997424 21.5419765 35.4350842 24.1369412 36.5653414 23.8112471 31.05935 22.3339765 20.8156548 21.7639059 16.6747573M33.9920471 30.4953618C32.7371294 24.9965506 29.9714824 24.9690967 26.9466353 22.2925496 26.6196706 23.8008263 26.2423059 25.2985438 25.9517647 26.8169574 26.9728941 30.271929 28.0643294 33.7902558 28.9677176 36.2361899 30.8922353 34.1648964 34.8276706 34.1560267 33.9920471 30.4953618"/>
          <path fill="#E7EFF5" fill-rule="nonzero" d="M21.4636235,42.7877537 C21.4636235,33.9370288 13.4411294,28.0952547 26.3858824,28.0639994 C26.9169882,28.0623099 27.3744,25.8955612 27.8318118,26.0991427 C35.2965176,29.425292 41.0450824,46.743654 40.0104,55.1365318 C38.5831059,66.7119538 34.0725176,58.8470361 30.5584941,58.7739665 C28.4319529,58.7291954 23.2416,54.4827059 21.4636235,42.7877537"/>
          <path fill="#4E525A" fill-rule="nonzero" d="M25.2344329,54.0102026 C26.53128,54.0102026 33.4915624,57.8626227 39.1965035,56.0523527 C44.9014447,54.2420827 60.5021506,131.333988 60.5021506,131.333988 L56.0932094,130.299608 C56.0932094,130.299608 41.4111388,90.7439844 36.3021035,72.4541757 C36.1991859,72.0850259 35.65368,72.1682325 35.6634212,72.5513204 C35.8247859,78.9696271 36.5253035,95.9796602 33.9663388,99.90515 C30.6729741,104.957518 6.66309176,121.043832 6.66309176,121.043832 L7.34116235,115.559381 L23.8075624,98.4027864 C24.3848329,97.8017565 24.6724094,96.9806728 24.5970212,96.1519864 L21.0855388,57.6307425 L25.2344329,54.0102026 Z"/>
          <path fill="#FF547D" fill-rule="nonzero" d="M58.2169976,121.891863 L53.9084329,123.205005 C53.5670682,123.308908 53.3730918,123.668343 53.4743153,124.010039 L56.2895153,133.515857 C56.2895153,133.515857 66.3563859,132.077693 68.4071153,131.210994 C70.4578447,130.344717 68.4947859,128.875298 67.5465035,128.665381 C66.5986447,128.455886 60.6463624,127.943132 60.5531859,127.861192 C60.4790682,127.796147 59.4503153,123.915851 59.0361035,122.344219 C58.94208,121.988163 58.5702212,121.783737 58.2169976,121.891863"/>
          <path fill="#FFDFE7" fill-rule="nonzero" d="M69.3712376,130.129267 L69.5025318,131.025955 C69.5025318,131.025955 68.9189082,131.694141 67.4352847,132.026967 C65.9520847,132.360216 56.8949082,133.8271 56.5632847,133.868915 C56.2320847,133.910307 56.07792,133.858355 56.0681788,133.705881 C56.0584376,133.552983 55.8204141,132.607301 55.8204141,132.607301 C55.8204141,132.607301 55.6789553,132.427372 55.9008847,132.383868 C56.1228141,132.340364 60.8934494,132.016408 63.8793318,131.422558 C66.8652141,130.828286 67.0947671,130.813926 68.0633788,130.477721 C69.0324141,130.141938 69.3712376,130.129267 69.3712376,130.129267"/>
          <path fill="#FFC0D1" fill-rule="nonzero" d="M55.7180047,124.572887 C55.1178635,124.789984 54.8531576,125.575589 55.1267576,126.327827 C55.3999341,127.080064 56.1080753,127.513837 56.7082165,127.296739 C57.3087812,127.080064 57.5734871,126.294037 57.2998871,125.5418 C57.0267106,124.789984 56.3181459,124.35579 55.7180047,124.572887"/>
          <path fill="#FF547D" fill-rule="nonzero" d="M11.6405365,117.672278 L8.83804235,114.265034 C8.61611294,113.994718 8.21714824,113.953749 7.94397176,114.172535 L0.349242353,120.266886 C0.349242353,120.266886 5.41380706,128.835891 6.96731294,130.367398 C8.52124235,131.898905 9.12434824,129.575035 8.96128941,128.639068 C8.79865412,127.7031 7.04354824,122.128262 7.08336,122.012956 C7.11470118,121.921724 10.2598306,119.543369 11.5346541,118.582059 C11.8235012,118.364117 11.8705129,117.951463 11.6405365,117.672278"/>
          <path fill="#FFDFE7" fill-rule="nonzero" d="M8.31104471,130.835847 L7.54445647,131.289048 C7.54445647,131.289048 6.71899765,131.010285 5.86262118,129.79302 C5.00624471,128.575755 0.291938824,120.930468 0.130150588,120.646215 C-0.0312141176,120.361961 -0.0413788235,120.20315 0.0937270588,120.137683 C0.228832941,120.071794 1.00050353,119.503709 1.00050353,119.503709 C1.00050353,119.503709 1.11104471,119.308575 1.23344471,119.493149 C1.35584471,119.677302 3.43113882,123.871418 5.08544471,126.350719 C6.74017412,128.829598 6.83885647,129.031912 7.50591529,129.782883 C8.17297412,130.533853 8.31104471,130.835847 8.31104471,130.835847"/>
          <path fill="#07B1E4" fill-rule="nonzero" d="M28.8199482,27.6831078 L43.7802776,76.9785413 C43.9496894,77.5360673 44.5731247,77.8169421 45.1046541,77.5745028 L49.13496,75.7372012 C49.5678071,75.5399553 49.7927012,75.0597227 49.6626776,74.6031427 C47.9783012,68.6709818 37.2092188,31.2799951 32.0934071,26.6799834 C29.1024424,25.4656749 28.8199482,27.6831078 28.8199482,27.6831078"/>
          <path fill="#3AD5F1" fill-rule="nonzero" d="M27.5845129,25.2720614 C27.5845129,25.2720614 34.2178306,49.077576 37.1846541,55.0663342 C40.0921835,60.936407 36.2850776,43.6408529 35.1775482,39.1612162 C35.1186776,38.9217334 33.2691247,37.3256041 32.94936,36.904503 C32.6825365,36.5539375 32.5652188,36.0952456 32.6317129,35.6597841 L33.2314306,34.0839284 C33.2818306,33.7561707 33.2297365,33.4136301 33.0810776,33.1103698 C32.3809835,31.6802312 30.9244659,27.3885482 29.3137835,26.0728714 C28.7572659,25.6644414 28.1931247,25.417356 27.5845129,25.2720614"/>
          <path fill="#FFD2AD" fill-rule="nonzero" d="M26.7844235,21.6606868 C26.7869647,21.7248868 27.6001412,24.726235 28.0656,26.7303719 C28.1282824,27.6785885 26.8187294,29.1268889 25.9903059,29.1885547 C24.9179294,29.2764072 23.2987765,28.6284945 23.1323294,27.5413188 C22.6406118,24.3317431 22.0722353,18.8016767 22.0722353,18.8016767 L26.7844235,21.6606868 Z"/>
          <path fill="#07B1E4" fill-rule="nonzero" d="M19.8160518,42.7670999 C15.8920518,53.0800634 14.3321929,54.7792506 11.7757694,53.8116051 C9.21934588,52.844382 8.43031059,50.3089059 12.3543106,39.9963647 C16.2783106,29.6834012 18.5552047,28.3085928 21.1120518,29.2758159 C23.6684753,30.2434614 23.7400518,32.4541364 19.8160518,42.7670999"/>
          <path fill="#07B1E4" fill-rule="nonzero" d="M25.1242306,36.3429223 L33.6206541,78.4973772 C33.7934541,79.1824584 33.3080894,79.8578251 32.6020659,79.9148448 L20.7292659,80.3840958 C20.1079482,80.43478 19.5607482,79.982846 19.4967953,79.3649214 C18.8094071,72.7274057 19.0410776,38.3635316 19.8199482,34.7725575 C20.40696,32.066867 19.9139718,29.6728842 21.4623953,28.0459221 C21.9947718,27.4862842 22.9379718,27.7371709 23.1281365,28.485185 L25.1242306,36.3429223 Z"/>
          <path fill="#3AD5F1" fill-rule="nonzero" d="M20.1644894,28.8568267 C20.3957365,28.007022 22.3215247,26.6102504 22.8958306,26.2098454 C23.2515953,27.5014473 24.1867482,30.9272755 26.30736,37.6298359 C28.0095247,43.010384 29.7536188,59.5042832 29.6557835,59.2297439 C28.8438776,56.9396637 25.11216,44.5685001 24.2316424,42.3489554 C24.1452424,42.1318582 24.1439718,41.8911083 24.2269835,41.6731664 L25.2493835,38.9890167 C25.4166776,38.5493314 25.2307482,38.0538935 24.8144188,37.8321502 L22.1499953,36.4125708 C21.9238306,36.2921959 21.7578071,36.0873473 21.6891953,35.8411067 C21.2944659,34.4316641 19.9675482,29.5816105 20.1644894,28.8568267"/>
          <path fill="#D0DDE6" fill-rule="nonzero" d="M29.9035906,64.6861071 L16.4586494,57.4792391 C16.1808141,57.3301431 16.0753553,56.9816894 16.2248612,56.7046159 L26.3590729,37.9016298 C26.5085788,37.6245563 26.8584141,37.519809 27.1362494,37.6684826 L40.5811906,44.875773 C40.8590259,45.0244466 40.9644847,45.3729003 40.8149788,45.6503962 L30.6803435,64.4529599 C30.5312612,64.7300334 30.1814259,64.8352031 29.9035906,64.6861071"/>
          <path fill="#FFF" fill-rule="nonzero" d="M29.5526541,62.0739712 L18.8369365,56.3297641 C18.6505835,56.2300852 18.5798541,55.9960933 18.6802306,55.8106736 L26.96616,40.4368947 C27.0665365,40.2510527 27.3007482,40.1809396 27.4871012,40.2806185 L38.2028188,46.0248256 C38.3891718,46.1245045 38.4599012,46.3584964 38.3595247,46.5439161 L30.0735953,61.917695 C29.9732188,62.1035369 29.7390071,62.1736501 29.5526541,62.0739712"/>
          <path fill="#FD547D" fill-rule="nonzero" d="M35.1342212,45.1652219 L30.0467859,42.438413 C29.9218447,42.3712565 29.8744094,42.2145579 29.9417506,42.0895369 L30.2886212,41.4454254 C30.3559624,41.3208268 30.5135153,41.2735216 30.6384565,41.3406781 L35.7254682,44.067487 C35.8508329,44.1350659 35.8982682,44.2917645 35.8309271,44.4167855 L35.4840565,45.0604746 C35.4167153,45.1850732 35.2591624,45.2323784 35.1342212,45.1652219"/>
          <path fill="#07B1E4" fill-rule="nonzero" d="M21.9849882,55.3878409 C11.1112941,53.5159051 8.86912941,54.5291664 9.63698824,49.7682324 C10.4048471,45.0072984 10.2341647,47.6787771 21.1082824,49.5507128 C31.9819765,51.4222261 35.8746353,52.1009718 35.5074353,54.2216824 C35.1406588,56.3432377 32.8586824,57.2597766 21.9849882,55.3878409"/>
          <path fill="#FFC0D1" fill-rule="nonzero" d="M8.24755765,116.633295 C7.90195765,116.109136 7.08624,116.034799 6.42511059,116.467726 C5.76440471,116.901076 5.50859294,117.677389 5.85419294,118.201548 C6.19979294,118.726129 7.01551059,118.800043 7.67621647,118.367116 C8.33734588,117.934189 8.59273412,117.157876 8.24755765,116.633295"/>
          <path fill="#FFD2AD" fill-rule="nonzero" d="M39.3815012,53.8691316 C40.1798541,53.0995768 38.6102541,51.5473738 38.2642306,50.9264926 C37.9728424,50.4031785 37.9859718,51.2977542 37.3710071,51.8662618 C36.8390541,52.0356314 36.1453129,52.1061669 35.4490306,52.1610748 C35.4295482,51.8970947 35.6929835,51.6571896 36.2054541,51.2690332 C36.9042776,50.7393835 37.7009365,49.985034 37.0707247,49.2353305 C36.7014071,48.7956452 35.5007012,50.2583062 33.8760424,51.1427451 C32.3005129,52.0001525 32.3568424,53.9852829 32.3568424,53.9852829 C32.1819247,55.4188004 32.9006541,56.1807526 33.4618306,56.5503248 C33.4643718,56.5520142 33.4681835,56.5532813 33.4707247,56.5553932 C33.8006541,56.7708009 34.0975482,56.8231746 34.0975482,56.8231746 C34.3199012,56.8877969 36.9627247,56.8793496 36.9711953,56.8447154 C38.6132188,56.8932877 37.7039012,55.7735897 38.6619247,55.4365399 C39.7296424,55.0602099 39.3865835,54.3556998 39.3319482,53.9122132 C39.3294071,53.8906724 39.3815012,53.8691316 39.3815012,53.8691316"/>
        </g>
      </g>
      <rect width="97" height="168" x="246"/>
    </g>
  </g>
</svg>
